<svg width="44" height="44" viewBox="0 0 44 44" fill="none" xmlns="http://www.w3.org/2000/svg">
<path fill-rule="evenodd" clip-rule="evenodd" d="M14.1076 31.2859C7.73855 27.5086 4.58211 21.4981 9.27535 18.1585C13.1748 15.3838 10.7958 12.0298 15.3167 10.4962C20.1641 8.85209 25.3997 13.3043 27.9896 19.4185C29.4744 22.924 36.3689 22.8975 36.7951 27.6261C37.4178 34.5322 36.6107 40.4748 31.1225 38.727C25.945 37.0794 26.4226 40.5082 22.6519 40.0573C18.3245 39.5384 19.4079 34.4297 14.1076 31.2859Z" fill="#FBC02D"/>
<path fill-rule="evenodd" clip-rule="evenodd" d="M22.5675 29.5613C22.3991 29.3925 22.3995 29.1184 22.5677 28.9502C22.7363 28.7815 23.0099 28.7815 23.1783 28.9502L25.5637 31.3356C25.7324 31.5043 25.7324 31.7779 25.5638 31.9466C25.3956 32.1147 25.1215 32.1153 24.9528 31.9466L22.5675 29.5613ZM20.9386 31.1899C20.7702 31.0217 20.7706 30.7476 20.9388 30.5794C21.1074 30.4107 21.381 30.4107 21.5495 30.5789L24.7492 33.7791C24.918 33.9478 24.918 34.2214 24.7493 34.3895C24.5812 34.5583 24.3071 34.5583 24.1384 34.3895L20.9386 31.1899ZM24.1964 27.9321C24.0279 27.7639 24.0284 27.4898 24.1965 27.3216C24.3651 27.1529 24.6388 27.1529 24.8072 27.3216L28.8214 31.3356C28.9901 31.5043 28.9901 31.7779 28.8215 31.9466C28.6534 32.1147 28.3793 32.1153 28.2106 31.9466L24.1964 27.9321ZM25.8252 26.3035C25.6568 26.1347 25.6572 25.8606 25.8254 25.6924C25.994 25.5243 26.2676 25.5243 26.4361 25.6924L29.6358 28.8921C29.8046 29.0608 29.8046 29.3344 29.636 29.5031C29.4678 29.6713 29.1937 29.6718 29.025 29.5031L25.8252 26.3035ZM27.4541 24.6743C27.2857 24.5061 27.2861 24.232 27.4542 24.0638C27.6229 23.8951 27.8965 23.8951 28.0649 24.0638L32.0791 28.0778C32.2478 28.2465 32.2478 28.5201 32.0793 28.6888C31.9111 28.8569 31.6371 28.8575 31.4683 28.6888L27.4541 24.6743Z" fill="#F9A825"/>
<path fill-rule="evenodd" clip-rule="evenodd" d="M30.062 15.2433C30.062 15.2433 33.296 11.1804 34.4388 9.76883C34.8083 9.31215 35.3547 9.03399 35.9415 9.0029C36.5285 8.9718 37.1005 9.1918 37.5161 9.607L37.5175 9.60874C37.9331 10.024 38.1529 10.5964 38.122 11.1832C38.0911 11.7701 37.8125 12.3166 37.356 12.6863C35.9443 13.8289 31.8817 17.0625 31.8817 17.0625L30.062 15.2433ZM13.9375 35.0067C13.9375 35.0067 10.7041 39.069 9.56082 40.4811C9.19128 40.9378 8.64492 41.2165 8.05806 41.247C7.4712 41.2781 6.89903 41.0581 6.48348 40.6429L6.48207 40.6412C6.06653 40.226 5.84679 39.6535 5.87761 39.0667C5.90853 38.4799 6.18706 37.9333 6.64362 37.5642C8.0559 36.4205 12.1179 33.1874 12.1179 33.1874L13.9375 35.0067Z" fill="#4E342E"/>
<path fill-rule="evenodd" clip-rule="evenodd" d="M32.9963 18.2013L15.0793 36.1185C14.6282 36.5694 13.8997 36.5682 13.4499 36.1185L11.0068 33.6755C10.5571 33.2257 10.5561 32.4973 11.0072 32.0463L28.9242 14.1292C29.1392 13.9144 29.4328 13.7923 29.7391 13.7918C30.0451 13.7906 30.3373 13.9127 30.5536 14.1286L32.9967 16.5721C33.2128 16.7881 33.335 17.0801 33.3343 17.3865C33.3332 17.6928 33.2112 17.9865 32.9963 18.2013Z" fill="#5D4037"/>
<path fill-rule="evenodd" clip-rule="evenodd" d="M11.8201 28.7862C11.1457 29.4606 11.1454 30.5548 11.8203 31.2297C12.9842 32.3936 14.7279 34.1374 15.8925 35.3019C16.5667 35.9762 17.661 35.9762 18.3353 35.3019C21.3585 32.2784 29.1575 24.4797 32.1807 21.4563C32.855 20.7819 32.8553 19.6877 32.1811 19.0134C31.0165 17.8489 29.2728 16.1051 28.109 14.9412C27.434 14.2663 26.3398 14.2669 25.6654 14.9412C22.6422 17.9641 14.8432 25.7634 11.8201 28.7862Z" fill="#6D4C41"/>
</svg>
