<svg width="33" height="32" viewBox="0 0 33 32" fill="none" xmlns="http://www.w3.org/2000/svg">
<path d="M26.2951 1.23615C25.3705 2.61484 25.4208 3.78617 25.4208 3.78617H23.8967V3.62266C23.9073 3.44465 23.9348 3.27143 23.9786 3.10527C24.2588 2.0269 25.1896 1.23615 26.2951 1.23615Z" fill="#418069"/>
<path d="M20.179 1.23615C21.1035 2.61484 21.0532 3.78617 21.0532 3.78617H22.5774V3.62266C22.5667 3.44465 22.5393 3.27143 22.4954 3.10527C22.2149 2.0269 21.2842 1.23615 20.179 1.23615Z" fill="#418069"/>
<path d="M24.5319 2.65272V5.11608H22.0222V2.65272C22.0222 2.65184 22.0222 2.65184 22.0222 2.65083C22.0222 1.75979 22.4406 0.868376 23.2771 0.188477C24.1147 0.869258 24.5333 1.76067 24.5319 2.65272Z" fill="#418069"/>
<path d="M27.4554 1.79614C26.2089 3.59081 26.277 5.11564 26.277 5.11564H24.2227V4.90312C24.2368 4.67157 24.2742 4.44582 24.3333 4.22977C24.7112 2.82563 25.9654 1.79614 27.4554 1.79614Z" fill="#418069"/>
<path d="M19.2114 1.79614C20.458 3.59081 20.3899 5.11564 20.3899 5.11564H22.4443V4.90312C22.43 4.67157 22.3926 4.44582 22.3336 4.22977C21.9556 2.82563 20.7015 1.79614 19.2114 1.79614Z" fill="#418069"/>
<path d="M24.2224 4.9028V5.11533H24.2156C24.2156 5.04377 24.2181 4.97284 24.2224 4.9028Z" fill="#418069"/>
<path d="M18.8215 13.9429V8.44817C18.8215 6.25994 20.5953 4.48593 22.7838 4.48593H23.8836C26.0716 4.48593 27.8454 6.25969 27.8454 8.44817V13.9429C27.8454 15.7986 26.3412 17.3027 24.4856 17.3027H22.181C20.3257 17.3027 18.8215 15.7986 18.8215 13.9429Z" fill="#FFC76E" stroke="#FFC76E" stroke-width="1.06161" stroke-miterlimit="10"/>
<path d="M21.5525 10.0133L19.7764 8.23724L18.8215 9.19215V10.8344L19.7764 11.7893L21.5525 10.0133Z" fill="#FFC76E" stroke="#FF996E" stroke-width="1.06161" stroke-miterlimit="10"/>
<path d="M25.1145 10.0133L26.8905 11.7893L27.8454 10.8344V9.19215L26.8905 8.23724L25.1145 10.0133Z" fill="#FFC76E" stroke="#FF996E" stroke-width="1.06161" stroke-miterlimit="10"/>
<path d="M26.8909 11.8L25.1122 13.5787L23.3337 11.8L21.555 13.5787L19.7764 11.8L18.8215 12.7549V13.9434C18.8215 14.142 18.8389 14.3368 18.8722 14.5261L19.7764 15.4304L21.555 13.6519L23.3337 15.4304L25.1122 13.6519L26.8909 15.4304L27.7951 14.5261C27.8283 14.3368 27.8458 14.142 27.8458 13.9434V12.7553L26.8909 11.8Z" fill="#FFC76E" stroke="#FF996E" stroke-width="1.06161" stroke-miterlimit="10"/>
<path d="M23.3334 15.4406L21.5574 17.2165L21.5919 17.251C21.7831 17.2849 21.9801 17.3027 22.1813 17.3027H24.486C24.6869 17.3027 24.8839 17.2849 25.0752 17.251L25.1097 17.2165L23.3334 15.4406Z" fill="#FFC76E" stroke="#FF996E" stroke-width="1.06161" stroke-miterlimit="10"/>
<path d="M23.3337 4.59622L21.555 6.37477L20.4363 5.25596C19.7258 5.7794 19.1966 6.53438 18.9592 7.40929L19.7761 8.22626L21.5547 6.44758L23.3333 8.22626L25.112 6.44758L26.8905 8.22626L27.7077 7.40904C27.4706 6.53375 26.9411 5.77915 26.2306 5.25571L25.112 6.37439L23.3337 4.59622Z" fill="#FFC76E" stroke="#FF996E" stroke-width="1.06161" stroke-miterlimit="10"/>
<path d="M19.7766 15.4406L19.3958 15.8214C19.8833 16.5431 20.6444 17.0649 21.5301 17.2392L21.5526 17.2165L19.7766 15.4406Z" fill="#FFC76E" stroke="#FF996E" stroke-width="1.06161" stroke-miterlimit="10"/>
<path d="M27.2714 15.822L26.8905 15.4411L25.1145 17.2171L25.1371 17.2398C26.0227 17.0655 26.7837 16.5437 27.2714 15.822Z" fill="#FFC76E" stroke="#FF996E" stroke-width="1.06161" stroke-miterlimit="10"/>
<path d="M23.2341 4.48593L23.3338 4.58583L23.4334 4.48593H23.2341Z" fill="#FFC76E" stroke="#FF996E" stroke-width="1.06161" stroke-miterlimit="10"/>
<path d="M23.3327 8.23724L21.5566 10.0133L23.3327 11.7892L25.1087 10.0133L23.3327 8.23724Z" fill="#FFC76E" stroke="#FF996E" stroke-width="1.06161" stroke-miterlimit="10"/>
<path opacity="0.102" d="M25.4164 14.3145C26.8357 14.3296 27.3056 16.255 26.0501 16.9171C25.5828 17.1635 25.0507 17.3028 24.4853 17.3028H22.1807C21.6157 17.3028 21.0836 17.1631 20.6166 16.9167C19.3615 16.2543 19.831 14.329 21.2504 14.3141C21.2591 14.3141 21.268 14.3141 21.2768 14.3141H25.3896C25.3983 14.3145 25.4074 14.3145 25.4164 14.3145Z" fill="black"/>
<path d="M15.8943 6.94103C15.9414 8.22978 15.5683 9.42782 14.901 10.4112L14.8991 10.4137L14.3773 11.0732L14.0838 11.4447C12.7758 13.0644 11.1513 14.3654 9.33393 15.2848C6.58007 16.6781 3.45155 16.9456 2.72554 16.8728C1.63357 16.7631 0.762185 15.8634 0.684835 14.7685C0.632177 14.0239 0.937041 13.3489 1.44498 12.8976C1.88124 12.51 2.27958 12.0791 2.5818 11.5796C3.13358 10.6672 3.54275 9.67298 3.79244 8.63165L4.39297 6.13226L4.39486 6.1242L4.54705 5.49016L4.54906 5.48209C5.26726 3.10037 7.47576 1.36629 10.0887 1.36113C13.1914 1.35495 15.7808 3.84023 15.8943 6.94103Z" fill="#88D45F"/>
<path d="M12.5042 1.88801C12.5042 1.88801 12.5106 1.00604 12.9457 0.375778C13.151 0.0784719 13.5233 -0.0556943 13.8764 0.0214038L13.8774 0.0217825C14.0741 0.0646147 14.1421 0.30838 13.9984 0.449097C13.6604 0.779661 13.1965 1.36268 13.0505 2.17536L12.5042 1.88801Z" fill="#732C00"/>
<path d="M15.8943 6.94103C15.9414 8.22978 15.5683 9.42782 14.901 10.4112L14.8991 10.4137L14.3773 11.0732L14.0838 11.4447C12.7758 13.0644 11.1513 14.3654 9.33393 15.2848C6.58007 16.6781 3.45155 16.9456 2.72554 16.8728C1.63357 16.7631 0.762185 15.8634 0.684835 14.7685C0.632177 14.0239 0.937041 13.3489 1.44498 12.8976C1.88124 12.51 2.27958 12.0791 2.5818 11.5796C3.13358 10.6672 3.54275 9.67298 3.79244 8.63165L4.39297 6.13226L4.39486 6.1242L4.54705 5.49016L4.54906 5.48209C5.26726 3.10037 7.47576 1.36629 10.0887 1.36113C13.1914 1.35495 15.7808 3.84023 15.8943 6.94103Z" fill="#88D45F"/>
<path d="M14.9017 10.4105L14.8998 10.4131L14.378 11.0726L14.0845 11.4441C12.7765 13.0641 11.152 14.3647 9.33463 15.2842C6.59601 16.6693 3.48702 16.9428 2.73884 16.8731C2.67926 16.6929 2.64108 16.5035 2.62723 16.3088C2.57217 15.5279 2.89178 14.8205 3.42454 14.3467C3.88183 13.941 4.29945 13.4889 4.61578 12.9651C5.19477 12.0085 5.62397 10.9666 5.88487 9.87421L6.51438 7.25426L6.51703 7.24519L6.67626 6.58117L6.67828 6.5721C7.43099 4.07536 9.74645 2.25738 12.4858 2.25183C12.7432 2.25095 12.9977 2.26733 13.247 2.29895H13.2479C14.7808 3.29745 15.8233 4.99864 15.895 6.94071C15.9424 8.22908 15.5692 9.4275 14.9017 10.4105Z" fill="#88D45F"/>
<path d="M14.9017 10.4105L14.8998 10.413L14.378 11.0726L14.0845 11.4441C12.7765 13.064 11.152 14.3646 9.33463 15.2841C6.59601 16.6693 3.48702 16.9428 2.73884 16.8731C2.67926 16.6928 2.64108 16.5035 2.62723 16.3087C2.57217 15.5279 2.89178 14.8203 3.42454 14.3466C3.88183 13.9408 4.29945 13.4887 4.61578 12.965C5.19477 12.0085 5.62397 10.9664 5.88487 9.87418L6.51438 7.2541L6.51703 7.24516L6.67626 6.58113L6.67828 6.57206C7.43099 4.07519 9.74645 2.25734 12.4858 2.2518C12.4885 2.2518 12.491 2.2518 12.4935 2.2518C12.9884 2.2518 13.4705 2.42603 13.8474 2.74651C15.0474 3.76693 15.8328 5.26404 15.8946 6.94067C15.9424 8.22904 15.5692 9.42746 14.9017 10.4105Z" fill="#77BF50"/>
<path d="M12.5042 1.88801C12.5042 1.88801 12.5106 1.00604 12.9457 0.375778C13.151 0.0784719 13.5233 -0.0556943 13.8764 0.0214038L13.8774 0.0217825C14.0741 0.0646147 14.1421 0.30838 13.9984 0.449097C13.6604 0.779661 13.1965 1.36268 13.0505 2.17536L12.5042 1.88801Z" fill="#193329"/>
<path d="M14.2258 6.23585C14.2258 6.23585 14.2339 5.14514 14.8301 4.52344C14.9911 4.35539 15.2316 4.28963 15.459 4.33926C15.7106 4.39444 15.8063 4.70271 15.629 4.88916C15.3036 5.23093 14.9056 5.78145 14.7721 6.52358L14.2258 6.23585Z" fill="#193329"/>
<path d="M19.9554 11.0673C19.9554 12.7169 19.5168 14.1785 18.8411 15.0786C18.3539 15.8509 17.454 16.3682 16.4249 16.3682C16.0544 16.3682 15.7006 16.3012 15.3768 16.1792C14.6951 15.9229 13.9391 15.9307 13.2532 16.1755C12.9426 16.2863 12.6055 16.347 12.253 16.347C11.2069 16.347 10.2936 15.8119 9.81172 15.0182C9.81071 15.0174 9.81071 15.0167 9.80983 15.0151C9.1613 14.1107 8.74268 12.6788 8.74268 11.0673C8.74268 9.59643 9.09125 8.27543 9.64505 7.36751C10.0571 6.39875 11.0701 5.71469 12.253 5.71469C12.6237 5.71469 12.977 5.78184 13.3009 5.90378C13.9823 6.16015 14.7383 6.15272 15.4239 5.90794C15.7348 5.79696 16.0722 5.73598 16.4249 5.73598C17.5228 5.73598 18.4732 6.3253 18.9333 7.18409C19.5558 8.09163 19.9554 9.49388 19.9554 11.0673Z" fill="#D45F61"/>
<path d="M19.9555 11.0678C19.9555 12.7173 19.5168 14.1785 18.8412 15.079C18.3539 15.8508 17.4541 16.368 16.425 16.368C16.2093 16.368 15.9993 16.3455 15.7971 16.3019C16.0555 16.0926 16.2773 15.8452 16.4521 15.5692C17.2093 14.5591 17.7015 12.9205 17.7015 11.0707C17.7015 9.30686 17.2533 7.73404 16.5556 6.71589C16.3683 6.36631 16.108 6.0564 15.7939 5.80356C15.9968 5.75909 16.208 5.73642 16.4253 5.73642C17.5235 5.73642 18.4736 6.32536 18.9338 7.18415C19.5559 8.09169 19.9555 9.49394 19.9555 11.0678Z" fill="#C75052"/>
<path d="M21.8322 18.1801H0.996338V31.4968H21.8322V18.1801Z" fill="#FF996E"/>
<path d="M20.7576 18.1799H32.25V14.5563H20.7576V18.1799Z" fill="#FFAA6E"/>
<path d="M31.1632 18.1801H21.8323V31.4968H31.1632V18.1801Z" fill="#D45F61"/>
<path d="M5.48099 20.3994H3.85034V29.2773H5.48099V20.3994Z" fill="#193329"/>
<path d="M12.2299 20.3994H10.5994V29.2773H12.2299V20.3994Z" fill="#193329"/>
<path d="M18.9784 20.3994H17.3479V29.2773H18.9784V20.3994Z" fill="#193329"/>
<path d="M24.7004 20.3994H23.3333V29.2773H24.7004V20.3994Z" fill="#193329"/>
<path d="M27.1877 20.3994H25.8206V29.2773H27.1877V20.3994Z" fill="#193329"/>
<path d="M29.6747 20.3994H28.3076V29.2773H29.6747V20.3994Z" fill="#193329"/>
<path d="M0 18.1799H20.7578V14.5563H0V18.1799Z" fill="#FFC76E"/>
</svg>
