<svg width="44" height="44" viewBox="0 0 44 44" fill="none" xmlns="http://www.w3.org/2000/svg">
<path d="M24.8118 15.988H6.35156V32.3569H24.8118V15.988Z" fill="#FF996E"/>
<path d="M5.08984 34.376H26.0738V32.3568H5.08984V34.376Z" fill="#FFC76E"/>
<path d="M26.0737 34.376H31.9147V32.3568H26.0737V34.376Z" fill="#FF996E"/>
<path d="M9.43376 12.8871C8.67744 12.8871 7.9924 13.281 7.49611 13.9182C7.00015 14.5558 6.69349 15.4361 6.69349 16.4078V18.6316H3.61157V16.4078C3.61157 15.4361 3.91797 14.5558 4.41423 13.9182C4.91017 13.281 5.59521 12.8871 6.35186 12.8871H9.43376Z" fill="#D45F61"/>
<path d="M12.5087 12.8871C11.7533 12.8871 11.0679 13.281 10.5711 13.9182C10.0751 14.5558 9.7688 15.4361 9.7688 16.4078V18.6316H6.69312V16.4078C6.69312 15.4361 6.99977 14.5558 7.49573 13.9182C7.99203 13.281 8.67707 12.8871 9.43338 12.8871H12.5087Z" fill="white"/>
<path d="M15.5852 12.8871C14.8289 12.8871 14.1439 13.281 13.6476 13.9182C13.1516 14.5558 12.8453 15.4361 12.8453 16.4078V18.6316H9.76904V16.4078C9.76904 15.4361 10.0754 14.5558 10.5714 13.9182C11.0682 13.281 11.7535 12.8871 12.509 12.8871H15.5852Z" fill="#D45F61"/>
<path d="M18.6605 12.8871C17.9038 12.8871 17.2188 13.281 16.7228 13.9182C16.2265 14.5558 15.9202 15.4361 15.9202 16.4078V18.6316H12.8447V16.4078C12.8447 15.4361 13.1512 14.5558 13.6471 13.9182C14.1434 13.281 14.8285 12.8871 15.5848 12.8871H18.6605Z" fill="white"/>
<path d="M21.7363 12.8871C20.98 12.8871 20.2949 13.281 19.7986 13.9182C19.3027 14.5558 18.9962 15.4361 18.9962 16.4078V18.6316H15.9207V16.4078C15.9207 15.4361 16.227 14.5558 16.7233 13.9182C17.2192 13.281 17.9043 12.8871 18.6609 12.8871H21.7363Z" fill="#D45F61"/>
<path d="M24.8118 12.8871C24.0548 12.8873 23.3699 13.1941 22.8742 13.69C22.3782 14.1857 22.0716 14.8707 22.0716 15.6274V18.6316H18.9961V16.4078C18.9961 15.4361 19.3025 14.5558 19.7985 13.9182C20.2948 13.281 20.9798 12.8871 21.7361 12.8871H24.8118Z" fill="white"/>
<path d="M24.8116 12.8875V18.6317H22.0713V15.6274C22.0713 14.8708 22.3779 14.1859 22.8739 13.6901C23.3696 13.1942 24.0546 12.8875 24.8116 12.8875Z" fill="#D45F61"/>
<path d="M24.8115 15.9877H32.0344V12.8871H24.8115V15.9877Z" fill="#FF996E"/>
<path d="M6.35156 12.8877H22.9787V8.63336H6.35156V12.8877Z" fill="#FFC76E"/>
<path d="M22.9788 12.8877H24.8117V8.63336H22.9788V12.8877Z" fill="#FF996E"/>
<path d="M30.6529 15.988H24.812V32.3569H30.6529V15.988Z" fill="#D45F61"/>
<path d="M22.7681 21.9358H14.4753V30.2285H22.7681V21.9358Z" fill="#D45F61"/>
<path d="M22.0712 21.9358H14.4753V30.2285H22.0712V21.9358Z" fill="#FFC76E"/>
<path d="M21.5745 22.4784H14.9727V29.6858H21.5745V22.4784Z" fill="#61C9E8"/>
<path d="M15.6696 22.4784H14.9727V29.6858H15.6696V22.4784Z" fill="#41A2BF"/>
<path d="M29.8514 20.4409H26.8616V23.4307H29.8514V20.4409Z" fill="#FF996E"/>
<path d="M29.8516 20.4409H27.3276V23.4307H29.8516V20.4409Z" fill="#FFC76E"/>
<path d="M29.4463 20.921H27.7322V22.9515H29.4463V20.921Z" fill="#61C9E8"/>
<path d="M29.446 20.921H28.9802V22.9515H29.446V20.921Z" fill="#41A2BF"/>
<path d="M39.0115 23.0518C39.0115 25.6129 35.6189 31.0702 33.7978 33.8155C33.264 34.6203 32.0817 34.6203 31.5479 33.8155C29.7266 31.0702 26.3342 25.6127 26.3342 23.0518C26.3342 19.5509 29.1723 16.7132 32.6729 16.7132C36.1734 16.7132 39.0115 19.5509 39.0115 23.0518Z" fill="#FFC76E"/>
<path d="M32.672 26.3767C34.5082 26.3767 35.9966 24.8882 35.9966 23.0521C35.9966 21.216 34.5082 19.7274 32.672 19.7274C30.8358 19.7274 29.3474 21.216 29.3474 23.0521C29.3474 24.8882 30.8358 26.3767 32.672 26.3767Z" fill="white"/>
<path d="M13.1057 21.9358H8.20215V32.3571H13.1057V21.9358Z" fill="#FFC76E"/>
<path d="M12.6242 22.4541H8.65918V31.818H12.6242V22.4541Z" fill="#61C9E8"/>
<path d="M13.6354 21.9358H13.1057V32.3571H13.6354V21.9358Z" fill="#D45F61"/>
<path d="M9.21776 22.4541H8.65918V31.818H9.21776V22.4541Z" fill="#41A2BF"/>
</svg>
