<svg width="44" height="44" viewBox="0 0 44 44" fill="none" xmlns="http://www.w3.org/2000/svg">
<path d="M35.5233 33.8727L8.15388 33.8727C7.27137 33.8727 6.42501 33.5221 5.80098 32.8981C5.17696 32.2741 4.82638 31.4277 4.82638 30.5452L38.8645 30.5452C38.8645 30.9833 38.778 31.4171 38.6099 31.8217C38.4418 32.2264 38.1955 32.5938 37.885 32.903C37.5746 33.2121 37.2062 33.4569 36.8009 33.6233C36.3956 33.7898 35.9614 33.8745 35.5233 33.8727Z" fill="#8FBEB3"/>
<path d="M3.76063 30.5453L40.2394 30.5453C40.7975 30.5453 41.25 30.0928 41.25 29.5347C41.25 28.9765 40.7975 28.5241 40.2394 28.5241L3.76063 28.5241C3.20247 28.5241 2.75 28.9765 2.75 29.5347C2.75 30.0928 3.20247 30.5453 3.76063 30.5453Z" fill="#8FBEB3"/>
<path d="M18.9956 28.5237H24.9975C24.9606 27.7526 24.6283 27.0254 24.0695 26.4927C23.5108 25.9601 22.7685 25.663 21.9965 25.663C21.2246 25.663 20.4823 25.9601 19.9235 26.4927C19.3648 27.0254 19.0325 27.7526 18.9956 28.5237Z" fill="#F6CB70"/>
<path d="M16.0527 24.5019C16.5491 24.9984 16.9479 25.5838 17.2284 26.2275C17.7481 25.1461 18.6199 24.2733 19.7007 23.7522C20.7815 23.2312 22.0073 23.0927 23.1771 23.3596C24.3469 23.6265 25.3913 24.2828 26.1392 25.2211C26.8871 26.1594 27.294 27.3239 27.2934 28.5237H29.1702C29.1742 27.58 28.9896 26.6451 28.6271 25.7737C28.4274 25.2899 28.1761 24.8289 27.8777 24.3987C27.2083 23.4483 26.3183 22.6743 25.2842 22.1431C24.25 21.612 23.1026 21.3394 21.94 21.3489C20.7775 21.3584 19.6346 21.6495 18.6092 22.1975C17.5839 22.7454 16.7067 23.5338 16.0527 24.495V24.5019Z" fill="#F6CB70"/>
<path d="M28.6272 25.7951C28.9897 26.6664 29.1743 27.6014 29.1703 28.5451H29.4384C29.4384 27.9069 29.692 27.2948 30.1432 26.8436C30.5945 26.3923 31.2065 26.1388 31.8447 26.1388C32.4829 26.1388 33.0949 26.3923 33.5462 26.8436C33.9974 27.2948 34.2509 27.9069 34.2509 28.5451H36.0797C36.086 27.6806 35.8259 26.8352 35.3348 26.1239C34.8437 25.4125 34.1454 24.8696 33.3348 24.5692C32.5243 24.2687 31.6409 24.2252 30.8047 24.4445C29.9686 24.6638 29.2202 25.1354 28.6616 25.7951H28.6272Z" fill="#F6CB70"/>
<path d="M29.439 28.5244H34.2515C34.2515 27.8863 33.9979 27.2742 33.5467 26.823C33.0954 26.3717 32.4834 26.1182 31.8452 26.1182C31.207 26.1182 30.595 26.3717 30.1437 26.823C29.6925 27.2742 29.439 27.8863 29.439 28.5244Z" fill="#F6CB70"/>
<path d="M27.8779 24.4065C28.1763 24.8366 28.4276 25.2976 28.6273 25.7815C29.186 25.1218 29.9343 24.6503 30.7704 24.4309C31.6066 24.2116 32.49 24.2551 33.3006 24.5556C34.1111 24.8561 34.8094 25.3989 35.3005 26.1103C35.7917 26.8217 36.0518 27.6671 36.0454 28.5315H37.5442C37.5423 27.1977 37.0739 25.9067 36.22 24.882C35.3662 23.8574 34.1807 23.1638 32.8692 22.9215H32.7454C32.4432 22.8719 32.1374 22.8466 31.8311 22.8459H31.4323H31.2329C30.8509 22.8935 30.4736 22.974 30.1054 23.0865L29.8029 23.1965C29.3262 23.3722 28.877 23.6153 28.4692 23.9184L28.2698 24.0765C28.1323 24.1796 28.0017 24.2896 27.8779 24.4065Z" fill="#F6CB70"/>
<path d="M14.389 28.5315C14.4064 28.207 14.3575 27.8823 14.2453 27.5773C14.1331 27.2723 13.96 26.9933 13.7364 26.7575C13.5129 26.5216 13.2436 26.3337 12.945 26.2054C12.6465 26.077 12.3249 26.0108 11.9999 26.0108C11.6749 26.0108 11.3534 26.077 11.0548 26.2054C10.7563 26.3337 10.487 26.5216 10.2634 26.7575C10.0399 26.9933 9.86672 27.2723 9.75452 27.5773C9.64233 27.8823 9.59344 28.207 9.61086 28.5315H14.389Z" fill="#F6CB70"/>
<path d="M16.2181 28.5306C16.2181 27.4128 15.774 26.3409 14.9837 25.5506C14.1933 24.7602 13.1214 24.3162 12.0037 24.3162C10.886 24.3162 9.81402 24.7602 9.02367 25.5506C8.23332 26.3409 7.78931 27.4128 7.78931 28.5306H16.2181Z" fill="#F6CB70"/>
<path d="M17.2285 26.2277C17.548 26.9512 17.7142 27.7331 17.7166 28.524H18.9954C19.0323 27.7529 19.3646 27.0257 19.9233 26.493C20.4821 25.9604 21.2244 25.6633 21.9963 25.6633C22.7683 25.6633 23.5106 25.9604 24.0693 26.493C24.6281 27.0257 24.9603 27.7529 24.9973 28.524H27.2935C27.2942 27.3241 26.8872 26.1596 26.1394 25.2213C25.3915 24.2831 24.347 23.6267 23.1772 23.3598C22.0074 23.0929 20.7817 23.2314 19.7008 23.7524C18.62 24.2735 17.7483 25.1463 17.2285 26.2277Z" fill="#F6CB70"/>
<path d="M6.28345 28.524H17.7166C17.7142 27.7331 17.548 26.9513 17.2284 26.2278C16.948 25.5841 16.5492 24.9987 16.0528 24.5022C15.2558 23.6986 14.238 23.1498 13.1286 22.9256C12.0193 22.7013 10.8683 22.8116 9.82167 23.2425C8.77508 23.6733 7.88004 24.4053 7.2501 25.3457C6.62017 26.286 6.28372 27.3922 6.28345 28.524Z" fill="#F6CB70"/>
<path d="M31.3364 10.9241V22.8316H31.4327H31.8314C32.1378 22.8323 32.4435 22.8576 32.7458 22.9073H32.8696V10.9241C32.8797 10.8174 32.8674 10.7097 32.8335 10.6079C32.7996 10.5062 32.7448 10.4126 32.6726 10.3333C32.6004 10.254 32.5125 10.1906 32.4144 10.1472C32.3163 10.1039 32.2103 10.0815 32.103 10.0815C31.9958 10.0815 31.8897 10.1039 31.7916 10.1472C31.6935 10.1906 31.6056 10.254 31.5334 10.3333C31.4613 10.4126 31.4065 10.5062 31.3725 10.6079C31.3386 10.7097 31.3263 10.8174 31.3364 10.9241Z" fill="#F6CB70"/>
<path d="M29.803 10.9241V23.1891L30.1055 23.0791C30.4737 22.9667 30.8509 22.8862 31.233 22.8385H31.3361V10.9241C31.3462 10.8174 31.334 10.7097 31.3 10.6079C31.2661 10.5062 31.2113 10.4126 31.1391 10.3333C31.067 10.254 30.979 10.1906 30.881 10.1472C30.7829 10.1039 30.6768 10.0815 30.5696 10.0815C30.4623 10.0815 30.3563 10.1039 30.2582 10.1472C30.1601 10.1906 30.0721 10.254 30 10.3333C29.9278 10.4126 29.873 10.5062 29.8391 10.6079C29.8052 10.7097 29.7929 10.8174 29.803 10.9241Z" fill="#F6CB70"/>
<path d="M28.27 10.9241V24.0623L28.4694 23.9041C28.8773 23.6011 29.3264 23.358 29.8032 23.1823V10.9241C29.8133 10.8174 29.801 10.7097 29.7671 10.6079C29.7332 10.5062 29.6784 10.4126 29.6062 10.3333C29.534 10.254 29.4461 10.1906 29.348 10.1472C29.2499 10.1039 29.1438 10.0815 29.0366 10.0815C28.9294 10.0815 28.8233 10.1039 28.7252 10.1472C28.6271 10.1906 28.5392 10.254 28.467 10.3333C28.3948 10.4126 28.34 10.5062 28.3061 10.6079C28.2722 10.7097 28.2599 10.8174 28.27 10.9241Z" fill="#F6CB70"/>
<path d="M6.53125 12.2241C6.53125 12.3592 6.55797 12.4929 6.60988 12.6177C6.66179 12.7424 6.73786 12.8556 6.83371 12.9508C6.92956 13.0461 7.0433 13.1214 7.16838 13.1724C7.29345 13.2235 7.4274 13.2493 7.5625 13.2484H23.0656C23.424 13.2517 23.7668 13.3948 24.0212 13.6472L24.3031 13.9291C24.5592 14.1831 24.9049 14.3263 25.2656 14.3278H28.27V10.9247C28.2682 10.8218 28.2867 10.7195 28.3244 10.6237C28.3621 10.5279 28.4183 10.4405 28.4898 10.3664C28.5613 10.2924 28.6467 10.2331 28.7411 10.1921C28.8355 10.151 28.9371 10.129 29.04 10.1272H25.2794C24.9149 10.1232 24.5637 10.2642 24.3031 10.5191L24.0212 10.8009C23.7576 11.0562 23.4051 11.1992 23.0381 11.1997H7.5625C7.29018 11.1997 7.02892 11.3074 6.83572 11.4993C6.64252 11.6912 6.53307 11.9518 6.53125 12.2241Z" fill="#8DBFB3"/>
<path d="M35.5233 33.8727L8.15388 33.8727C7.27137 33.8727 6.42501 33.5221 5.80098 32.8981C5.17696 32.2741 4.82638 31.4277 4.82638 30.5452L38.8645 30.5452C38.8645 30.9833 38.778 31.4171 38.6099 31.8217C38.4418 32.2264 38.1955 32.5938 37.885 32.903C37.5746 33.2121 37.2062 33.4569 36.8009 33.6233C36.3956 33.7898 35.9614 33.8745 35.5233 33.8727Z" stroke="black" stroke-width="0.2" stroke-linecap="round" stroke-linejoin="round"/>
<path d="M3.76063 30.5453L40.2394 30.5453C40.7975 30.5453 41.25 30.0928 41.25 29.5347C41.25 28.9765 40.7975 28.5241 40.2394 28.5241L3.76063 28.5241C3.20247 28.5241 2.75 28.9765 2.75 29.5347C2.75 30.0928 3.20247 30.5453 3.76063 30.5453Z" stroke="black" stroke-width="0.2" stroke-linecap="round" stroke-linejoin="round"/>
<path d="M18.9956 28.5237H24.9975C24.9606 27.7526 24.6283 27.0254 24.0695 26.4927C23.5108 25.9601 22.7685 25.663 21.9965 25.663C21.2246 25.663 20.4823 25.9601 19.9235 26.4927C19.3648 27.0254 19.0325 27.7526 18.9956 28.5237Z" stroke="black" stroke-width="0.2" stroke-linecap="round" stroke-linejoin="round"/>
<path d="M16.0527 24.5019C16.5491 24.9984 16.9479 25.5838 17.2284 26.2275C17.7481 25.1461 18.6199 24.2733 19.7007 23.7522C20.7815 23.2312 22.0073 23.0927 23.1771 23.3596C24.3469 23.6265 25.3913 24.2828 26.1392 25.2211C26.8871 26.1594 27.294 27.3239 27.2934 28.5237H29.1702C29.1742 27.58 28.9896 26.6451 28.6271 25.7737C28.4274 25.2899 28.1761 24.8289 27.8777 24.3987C27.2083 23.4483 26.3183 22.6743 25.2842 22.1431C24.25 21.612 23.1026 21.3394 21.94 21.3489C20.7775 21.3584 19.6346 21.6495 18.6092 22.1975C17.5839 22.7454 16.7067 23.5338 16.0527 24.495V24.5019Z" stroke="black" stroke-width="0.2" stroke-linecap="round" stroke-linejoin="round"/>
<path d="M28.6272 25.7951C28.9897 26.6664 29.1743 27.6014 29.1703 28.5451H29.4384C29.4384 27.9069 29.692 27.2948 30.1432 26.8436C30.5945 26.3923 31.2065 26.1388 31.8447 26.1388C32.4829 26.1388 33.0949 26.3923 33.5462 26.8436C33.9974 27.2948 34.2509 27.9069 34.2509 28.5451H36.0797C36.086 27.6806 35.8259 26.8352 35.3348 26.1239C34.8437 25.4125 34.1454 24.8696 33.3348 24.5692C32.5243 24.2687 31.6409 24.2252 30.8047 24.4445C29.9686 24.6638 29.2202 25.1354 28.6616 25.7951H28.6272Z" stroke="black" stroke-width="0.2" stroke-linecap="round" stroke-linejoin="round"/>
<path d="M29.439 28.5244H34.2515C34.2515 27.8863 33.9979 27.2742 33.5467 26.823C33.0954 26.3717 32.4834 26.1182 31.8452 26.1182C31.207 26.1182 30.595 26.3717 30.1437 26.823C29.6925 27.2742 29.439 27.8863 29.439 28.5244Z" stroke="black" stroke-width="0.2" stroke-linecap="round" stroke-linejoin="round"/>
<path d="M27.8779 24.4065C28.1763 24.8366 28.4276 25.2976 28.6273 25.7815C29.186 25.1218 29.9343 24.6503 30.7704 24.4309C31.6066 24.2116 32.49 24.2551 33.3006 24.5556C34.1111 24.8561 34.8094 25.3989 35.3005 26.1103C35.7917 26.8217 36.0518 27.6671 36.0454 28.5315H37.5442C37.5423 27.1977 37.0739 25.9067 36.22 24.882C35.3662 23.8574 34.1807 23.1638 32.8692 22.9215H32.7454C32.4432 22.8719 32.1374 22.8466 31.8311 22.8459H31.4323H31.2329C30.8509 22.8935 30.4736 22.974 30.1054 23.0865L29.8029 23.1965C29.3262 23.3722 28.877 23.6153 28.4692 23.9184L28.2698 24.0765C28.1323 24.1796 28.0017 24.2896 27.8779 24.4065Z" stroke="black" stroke-width="0.2" stroke-linecap="round" stroke-linejoin="round"/>
<path d="M14.389 28.5315C14.4064 28.207 14.3575 27.8823 14.2453 27.5773C14.1331 27.2723 13.96 26.9933 13.7364 26.7575C13.5129 26.5216 13.2436 26.3337 12.945 26.2054C12.6465 26.077 12.3249 26.0108 11.9999 26.0108C11.6749 26.0108 11.3534 26.077 11.0548 26.2054C10.7563 26.3337 10.487 26.5216 10.2634 26.7575C10.0399 26.9933 9.86672 27.2723 9.75452 27.5773C9.64233 27.8823 9.59344 28.207 9.61086 28.5315H14.389Z" stroke="black" stroke-width="0.2" stroke-linecap="round" stroke-linejoin="round"/>
<path d="M16.2181 28.5306C16.2181 27.4128 15.774 26.3409 14.9837 25.5506C14.1933 24.7602 13.1214 24.3162 12.0037 24.3162C10.886 24.3162 9.81402 24.7602 9.02367 25.5506C8.23332 26.3409 7.78931 27.4128 7.78931 28.5306H16.2181Z" stroke="black" stroke-width="0.2" stroke-linecap="round" stroke-linejoin="round"/>
<path d="M17.2285 26.2277C17.548 26.9512 17.7142 27.7331 17.7166 28.524H18.9954C19.0323 27.7529 19.3646 27.0257 19.9233 26.493C20.4821 25.9604 21.2244 25.6633 21.9963 25.6633C22.7683 25.6633 23.5106 25.9604 24.0693 26.493C24.6281 27.0257 24.9603 27.7529 24.9973 28.524H27.2935C27.2942 27.3241 26.8872 26.1596 26.1394 25.2213C25.3915 24.2831 24.347 23.6267 23.1772 23.3598C22.0074 23.0929 20.7817 23.2314 19.7008 23.7524C18.62 24.2735 17.7483 25.1463 17.2285 26.2277Z" stroke="black" stroke-width="0.2" stroke-linecap="round" stroke-linejoin="round"/>
<path d="M6.28345 28.524H17.7166C17.7142 27.7331 17.548 26.9513 17.2284 26.2278C16.948 25.5841 16.5492 24.9987 16.0528 24.5022C15.2558 23.6986 14.238 23.1498 13.1286 22.9256C12.0193 22.7013 10.8683 22.8116 9.82167 23.2425C8.77508 23.6733 7.88004 24.4053 7.2501 25.3457C6.62017 26.286 6.28372 27.3922 6.28345 28.524Z" stroke="black" stroke-width="0.2" stroke-linecap="round" stroke-linejoin="round"/>
<path d="M31.3364 10.9241V22.8316H31.4327H31.8314C32.1378 22.8323 32.4435 22.8576 32.7458 22.9073H32.8696V10.9241C32.8797 10.8174 32.8674 10.7097 32.8335 10.6079C32.7996 10.5062 32.7448 10.4126 32.6726 10.3333C32.6004 10.254 32.5125 10.1906 32.4144 10.1472C32.3163 10.1039 32.2103 10.0815 32.103 10.0815C31.9958 10.0815 31.8897 10.1039 31.7916 10.1472C31.6935 10.1906 31.6056 10.254 31.5334 10.3333C31.4613 10.4126 31.4065 10.5062 31.3725 10.6079C31.3386 10.7097 31.3263 10.8174 31.3364 10.9241Z" stroke="black" stroke-width="0.2" stroke-linecap="round" stroke-linejoin="round"/>
<path d="M29.803 10.9241V23.1891L30.1055 23.0791C30.4737 22.9667 30.8509 22.8862 31.233 22.8385H31.3361V10.9241C31.3462 10.8174 31.334 10.7097 31.3 10.6079C31.2661 10.5062 31.2113 10.4126 31.1391 10.3333C31.067 10.254 30.979 10.1906 30.881 10.1472C30.7829 10.1039 30.6768 10.0815 30.5696 10.0815C30.4623 10.0815 30.3563 10.1039 30.2582 10.1472C30.1601 10.1906 30.0721 10.254 30 10.3333C29.9278 10.4126 29.873 10.5062 29.8391 10.6079C29.8052 10.7097 29.7929 10.8174 29.803 10.9241Z" stroke="black" stroke-width="0.2" stroke-linecap="round" stroke-linejoin="round"/>
<path d="M28.27 10.9241V24.0623L28.4694 23.9041C28.8773 23.6011 29.3264 23.358 29.8032 23.1823V10.9241C29.8133 10.8174 29.801 10.7097 29.7671 10.6079C29.7332 10.5062 29.6784 10.4126 29.6062 10.3333C29.534 10.254 29.4461 10.1906 29.348 10.1472C29.2499 10.1039 29.1438 10.0815 29.0366 10.0815C28.9294 10.0815 28.8233 10.1039 28.7252 10.1472C28.6271 10.1906 28.5392 10.254 28.467 10.3333C28.3948 10.4126 28.34 10.5062 28.3061 10.6079C28.2722 10.7097 28.2599 10.8174 28.27 10.9241Z" stroke="black" stroke-width="0.2" stroke-linecap="round" stroke-linejoin="round"/>
<path d="M6.53125 12.2241C6.53125 12.3592 6.55797 12.4929 6.60988 12.6177C6.66179 12.7424 6.73786 12.8556 6.83371 12.9508C6.92956 13.0461 7.0433 13.1214 7.16838 13.1724C7.29345 13.2235 7.4274 13.2493 7.5625 13.2484H23.0656C23.424 13.2517 23.7668 13.3948 24.0212 13.6472L24.3031 13.9291C24.5592 14.1831 24.9049 14.3263 25.2656 14.3278H28.27V10.9247C28.2682 10.8218 28.2867 10.7195 28.3244 10.6237C28.3621 10.5279 28.4183 10.4405 28.4898 10.3664C28.5613 10.2924 28.6467 10.2331 28.7411 10.1921C28.8355 10.151 28.9371 10.129 29.04 10.1272H25.2794C24.9149 10.1232 24.5637 10.2642 24.3031 10.5191L24.0212 10.8009C23.7576 11.0562 23.4051 11.1992 23.0381 11.1997H7.5625C7.29018 11.1997 7.02892 11.3074 6.83572 11.4993C6.64252 11.6912 6.53307 11.9518 6.53125 12.2241Z" stroke="black" stroke-width="0.2" stroke-linecap="round" stroke-linejoin="round"/>
<path d="M28.2702 12.9724H26.4277" stroke="black" stroke-width="0.2" stroke-linecap="round" stroke-linejoin="round"/>
<path d="M28.2702 11.4739H26.4277" stroke="black" stroke-width="0.2" stroke-linecap="round" stroke-linejoin="round"/>
</svg>
